<svg width="65" height="65" viewBox="0 0 65 65" fill="none" xmlns="http://www.w3.org/2000/svg">
<rect width="65" height="65" rx="5" fill="#282828"/>
<path d="M8 33C8 18.6406 19.6406 7 34 7V7V59V59C19.6406 59 8 47.3594 8 33V33Z" fill="#89B864"/>
<path d="M39.3945 9.9375H44.8672C46.0078 9.9375 46.9805 10.1328 47.7852 10.5234C48.5898 10.9141 49.207 11.4922 49.6367 12.2578C50.0664 13.0234 50.2812 13.9688 50.2812 15.0938C50.2812 16.0156 50.1562 16.8047 49.9062 17.4609C49.6562 18.1094 49.3008 18.6523 48.8398 19.0898C48.3789 19.5195 47.8281 19.8633 47.1875 20.1211L46.1445 20.7422H41.7031L41.6914 17.8945H44.7734C45.2422 17.8945 45.6289 17.793 45.9336 17.5898C46.2461 17.3789 46.4766 17.0859 46.625 16.7109C46.7812 16.3281 46.8594 15.8828 46.8594 15.375C46.8594 14.8359 46.7891 14.375 46.6484 13.9922C46.5156 13.6016 46.3008 13.3047 46.0039 13.1016C45.7148 12.8906 45.3359 12.7852 44.8672 12.7852H42.8281V27H39.3945V9.9375ZM47.1406 27L44.0117 19.3945L47.6094 19.3828L50.8086 26.8359V27H47.1406ZM46.1797 37.9375V55H42.7695V37.9375H46.1797ZM50.4219 37.9375V40.7852H38.6094V37.9375H50.4219Z" fill="white"/>
</svg>
