<svg width="40" height="40" viewBox="0 0 40 40" fill="none" xmlns="http://www.w3.org/2000/svg">
<path fill-rule="evenodd" clip-rule="evenodd" d="M20 0C8.95667 0 0 8.95333 0 20C0 31.045 8.95667 40 20 40C31.045 40 40 31.045 40 20C40 8.95333 31.045 0 20 0ZM25.4133 30.58L24.795 28.4217L26.2883 29.81L27.7 31.1167L30.2083 33.3333V12.4033C30.2083 11.0733 29.135 10 27.8167 10H12.1833C10.865 10 9.79167 11.0733 9.79167 12.4033V28.1767C9.79167 29.5067 10.865 30.58 12.1833 30.58H25.4133ZM23.3133 25.2367L22.5433 24.2917C24.0717 23.86 24.655 22.9033 24.655 22.9033C24.1767 23.2183 23.7217 23.44 23.3133 23.5917C22.73 23.8367 22.17 24 21.6217 24.0933C20.5017 24.3033 19.475 24.245 18.6 24.0817C17.935 23.9533 17.3633 23.7667 16.885 23.58C16.6167 23.475 16.325 23.3467 16.0333 23.1833L15.9867 23.1567L15.975 23.1517L15.9283 23.125L15.8817 23.09L15.555 22.8917C15.555 22.8917 16.115 23.825 17.5967 24.2683L16.815 25.2367C14.2367 25.155 13.2567 23.4633 13.2567 23.4633C13.2567 19.7067 14.9367 16.6617 14.9367 16.6617C16.6167 15.4017 18.215 15.4367 18.215 15.4367L18.3317 15.5767C16.2317 16.1833 15.2633 17.105 15.2633 17.105L15.9517 16.7667C17.2 16.2183 18.1917 16.0667 18.6 16.0317L18.7983 16.0083C19.51 15.915 20.315 15.8917 21.155 15.985C22.2633 16.1133 23.4533 16.44 24.6667 17.105C24.6667 17.105 23.745 16.23 21.7617 15.6233L21.925 15.4367C21.925 15.4367 23.5233 15.4017 25.2033 16.6617C25.2033 16.6617 26.8833 19.7067 26.8833 23.4633C26.8833 23.4633 25.9283 25.0917 23.3133 25.2367ZM22.1467 19.7883C21.4817 19.7883 20.9567 20.3717 20.9567 21.0833C20.9567 21.795 21.4933 22.3783 22.1467 22.3783C22.8117 22.3783 23.3367 21.795 23.3367 21.0833C23.3367 20.3717 22.8117 19.7883 22.1467 19.7883ZM17.8883 19.7883C17.2233 19.7883 16.6983 20.3717 16.6983 21.0833C16.6983 21.795 17.235 22.3783 17.8883 22.3783C18.5533 22.3783 19.0783 21.795 19.0783 21.0833C19.09 20.3717 18.5533 19.7883 17.8883 19.7883Z" fill="#FFF8F8"/>
</svg>
